<?xml version="1.0" encoding="utf-8"?>
<!-- Generator: Adobe Illustrator 19.0.0, SVG Export Plug-In . SVG Version: 6.00 Build 0)  -->
<svg version="1.1" id="Capa_1" xmlns="http://www.w3.org/2000/svg" xmlns:xlink="http://www.w3.org/1999/xlink" x="0px" y="0px"
	 viewBox="0 0 64 82" style="enable-background:new 0 0 64 82;" xml:space="preserve">
<style type="text/css">
	.st0{fill:#438433;}
	.st1{fill:#428332;}
	.st2{fill:#FFFFFF;}
</style>
<g id="PDF">
	<path id="XMLID_272_" class="st0" d="M3.9,56.1v18.4c0,1.2,1.5,2.5,3.1,2.5h50.1c1.6,0,3.1-1.2,3.1-2.5V56.1H3.9z"/>
	<path id="XMLID_2468_" class="st1" d="M45.1,36.4c0.2-0.3,0.3-0.4,0.3-0.5c-0.2-0.1-0.4-0.2-1.5-0.2c-0.6,0-1.4,0-2.2,0.1
		c1,0.8,1.3,1.2,1.9,1.2C43.9,36.9,44.7,36.9,45.1,36.4z"/>
	<path id="XMLID_2467_" class="st1" d="M21.5,45.5c0.2-0.1,1.3-0.6,3.3-4.3C22.1,42.7,21,44,21,44.7C21,44.8,20.9,45.1,21.5,45.5z"
		/>
	<path id="XMLID_2458_" class="st1" d="M32.4,27.6c-0.9,3.1-2.1,6.4-3.3,9.4c2.6-1,5.4-1.9,8.1-2.5C35.5,32.5,33.8,30.1,32.4,27.6z"
		/>
	<g id="XMLID_69_">
		<path id="XMLID_2461_" class="st1" d="M59.9,53.4v-31c0-1-0.1-1.7-0.7-2.2L44.8,5.7c-0.4-0.4-1-0.7-1.6-0.7h-36
			C5.7,5,4.1,6.2,4.1,8.7v44.7H59.9z M42.5,9.2c0-0.6,0.7-0.9,1.1-0.5l12.5,12.5c0.4,0.4,0.1,1.1-0.5,1.1H42.5V9.2z M18.9,44.4
			c0.2-2,2.7-4.1,7.4-6.3C28.2,34.1,30,29,31,24.8c-1.2-2.7-2.4-6.2-1.6-8.2c0.3-0.7,0.7-1.3,1.4-1.5c0.3-0.1,1-0.2,1.3-0.2
			c0.6,0,1.2,0.8,1.6,1.3c0.4,0.5,1.2,1.5-0.5,8.4c1.7,3.5,4,7,6.3,9.4c1.6-0.3,3-0.4,4.2-0.4c1.9,0,3.1,0.5,3.6,1.4
			c0.4,0.8,0.2,1.7-0.5,2.7c-0.7,1-1.6,1.5-2.8,1.5c-1.5,0-3.3-1-5.2-2.8c-3.5,0.7-7.6,2-11,3.5c-1,2.2-2,4-3,5.3
			c-1.3,1.8-2.4,2.6-3.5,2.6l0,0c-0.4,0-0.8-0.1-1.2-0.4C19,46.2,18.8,45.2,18.9,44.4z"/>
	</g>
	<path id="XMLID_2247_" class="st1" d="M31.7,17.1c-0.1,0-1.6,2.2,0.1,4C33,18.5,31.7,17.1,31.7,17.1z"/>
	<g id="XMLID_27_">
		<path id="XMLID_2_" class="st2" d="M23.1,68.1v4h-1.4V61.5H25c0.9,0,1.7,0.3,2.2,0.9s0.8,1.4,0.8,2.4c0,1-0.3,1.8-0.8,2.4
			c-0.5,0.6-1.3,0.9-2.2,0.9H23.1z M23.1,66.7H25c0.5,0,0.9-0.2,1.2-0.5s0.4-0.8,0.4-1.3c0-0.5-0.1-1-0.4-1.4s-0.7-0.5-1.2-0.5h-1.9
			V66.7z"/>
		<path id="XMLID_5_" class="st2" d="M29.4,72.1V61.5h2.8c1.1,0,2,0.4,2.6,1.3c0.7,0.8,1,1.9,1,3.3v1.6c0,1.3-0.3,2.4-1,3.3
			c-0.7,0.8-1.6,1.3-2.6,1.3H29.4z M30.8,62.9v7.8h1.3c0.7,0,1.3-0.3,1.7-0.9s0.6-1.3,0.6-2.2V66c0-0.9-0.2-1.6-0.6-2.2
			s-1-0.9-1.7-0.9H30.8z"/>
		<path id="XMLID_8_" class="st2" d="M42.4,67.6h-3.7v4.5h-1.4V61.5H43v1.4h-4.3v3.3h3.7V67.6z"/>
	</g>
</g>
<g id="XMLID_1_">
</g>
<g id="XMLID_10_">
</g>
<g id="XMLID_11_">
</g>
<g id="XMLID_12_">
</g>
<g id="XMLID_13_">
</g>
<g id="XMLID_14_">
</g>
<g id="XMLID_15_">
</g>
<g id="XMLID_16_">
</g>
<g id="XMLID_17_">
</g>
<g id="XMLID_18_">
</g>
<g id="XMLID_19_">
</g>
<g id="XMLID_20_">
</g>
<g id="XMLID_21_">
</g>
<g id="XMLID_22_">
</g>
<g id="XMLID_23_">
</g>
</svg>
