<?xml version="1.0" encoding="utf-8"?>
<!-- Generator: Adobe Illustrator 19.0.0, SVG Export Plug-In . SVG Version: 6.00 Build 0)  -->
<svg version="1.1" id="Capa_1" xmlns="http://www.w3.org/2000/svg" xmlns:xlink="http://www.w3.org/1999/xlink" x="0px" y="0px"
	 viewBox="0 0 64 82" style="enable-background:new 0 0 64 82;" xml:space="preserve">
<style type="text/css">
	.st0{fill-rule:evenodd;clip-rule:evenodd;fill:#438433;}
	.st1{fill-rule:evenodd;clip-rule:evenodd;fill:#FFFFFF;}
	.st2{fill:#438433;}
	.st3{fill:#FFFFFF;}
</style>
<g id="EXCEL">
	<path id="XMLID_2921_" class="st0" d="M53.7,9h-17V5L8.8,9.3v37.8l27.9,4.8V46h17c1.1,0,2-0.8,2-1.8V10.8C55.7,9.8,54.8,9,53.7,9z
		 M53.9,44.4H36.6l0-3.2h4.2v-3.7h-4.2l0-2.2h4.2v-3.7h-4.3l0-2.2h4.3v-3.7h-4.3v-2.2h4.3V20h-4.3v-2.2h4.3v-3.7h-4.3v-3.4h17.5
		V44.4z"/>
	<rect id="XMLID_2920_" x="43.1" y="14.1" class="st0" width="7.2" height="3.7"/>
	<rect id="XMLID_2919_" x="43.1" y="20" class="st0" width="7.2" height="3.7"/>
	<rect id="XMLID_2918_" x="43.1" y="25.8" class="st0" width="7.2" height="3.7"/>
	<rect id="XMLID_2917_" x="43.1" y="31.7" class="st0" width="7.2" height="3.7"/>
	<rect id="XMLID_2916_" x="43.1" y="37.6" class="st0" width="7.2" height="3.7"/>
	<polygon id="XMLID_2914_" class="st1" points="16.1,19.5 19.7,19.3 21.9,25.5 24.6,19.1 28.2,18.8 23.8,27.7 28.2,36.5 24.4,36.3 
		21.8,29.5 19.3,36 15.8,35.7 19.8,27.9 	"/>
	<g id="XMLID_70_">
		<path id="XMLID_2924_" class="st2" d="M3.9,56v18.5c0,1.2,1.5,2.5,3.1,2.5h50.1c1.6,0,3.1-1.2,3.1-2.5V56H3.9z"/>
		<g id="XMLID_403_">
			<path id="XMLID_2_" class="st3" d="M20.4,66.8h-3.7v3.4h4.3v1.4h-5.8V60.9h5.7v1.4h-4.3v3h3.7V66.8z"/>
			<path id="XMLID_4_" class="st3" d="M25,64.9l1.8-3.9h1.7l-2.6,5.3l2.7,5.4h-1.7l-1.9-4l-1.9,4h-1.7l2.7-5.4l-2.6-5.3h1.7L25,64.9
				z"/>
			<path id="XMLID_6_" class="st3" d="M35.8,68L35.8,68c0,1.1-0.3,2-0.8,2.7c-0.6,0.7-1.4,1-2.3,1c-1,0-1.8-0.4-2.4-1.3
				c-0.6-0.8-0.9-1.9-0.9-3.2v-2c0-1.3,0.3-2.4,0.9-3.2s1.4-1.3,2.4-1.3c1,0,1.8,0.3,2.4,1c0.6,0.7,0.9,1.5,0.8,2.7l0,0h-1.4
				c0-0.7-0.2-1.3-0.5-1.7c-0.3-0.4-0.8-0.6-1.4-0.6c-0.6,0-1,0.3-1.4,0.9s-0.5,1.3-0.5,2.2v2c0,0.9,0.2,1.6,0.5,2.2
				s0.8,0.9,1.4,0.9c0.6,0,1-0.2,1.3-0.6c0.3-0.4,0.5-0.9,0.5-1.7H35.8z"/>
			<path id="XMLID_8_" class="st3" d="M42.4,66.8h-3.7v3.4H43v1.4h-5.8V60.9h5.7v1.4h-4.3v3h3.7V66.8z"/>
			<path id="XMLID_10_" class="st3" d="M45.6,70.1h3.9v1.4h-5.3V60.9h1.4V70.1z"/>
		</g>
	</g>
</g>
<g id="XMLID_1_">
</g>
<g id="XMLID_12_">
</g>
<g id="XMLID_13_">
</g>
<g id="XMLID_14_">
</g>
<g id="XMLID_15_">
</g>
<g id="XMLID_16_">
</g>
<g id="XMLID_17_">
</g>
<g id="XMLID_18_">
</g>
<g id="XMLID_19_">
</g>
<g id="XMLID_20_">
</g>
<g id="XMLID_21_">
</g>
<g id="XMLID_22_">
</g>
<g id="XMLID_23_">
</g>
<g id="XMLID_24_">
</g>
<g id="XMLID_25_">
</g>
</svg>
